<mxfile host="70c576ae-11ba-45ea-9fad-4cfdcf2b4028" modified="2020-10-02T10:12:36.891Z" agent="5.0 (Windows NT 10.0; Win64; x64) AppleWebKit/537.36 (KHTML, like Gecko) Code/1.49.1 Chrome/83.0.4103.122 Electron/9.2.1 Safari/537.36" etag="4GYOBXhKLgrr7-M7j2RO" version="13.6.5">
    <diagram id="6hGFLwfOUW9BJ-s0fimq" name="Page-1">
        <mxGraphModel dx="922" dy="792" grid="1" gridSize="10" guides="1" tooltips="1" connect="1" arrows="1" fold="1" page="1" pageScale="1" pageWidth="827" pageHeight="1169" math="0" shadow="0">
            <root>
                <mxCell id="0"/>
                <mxCell id="1" parent="0"/>
                <mxCell id="36" style="edgeStyle=orthogonalEdgeStyle;rounded=0;orthogonalLoop=1;jettySize=auto;html=1;" edge="1" parent="1" source="7">
                    <mxGeometry relative="1" as="geometry">
                        <mxPoint x="550" y="400" as="targetPoint"/>
                        <Array as="points">
                            <mxPoint x="500" y="400"/>
                            <mxPoint x="500" y="400"/>
                        </Array>
                    </mxGeometry>
                </mxCell>
                <mxCell id="7" value="VkDescriptorSet" style="rounded=1;whiteSpace=wrap;html=1;fillColor=#a20025;strokeColor=#6F0000;fontColor=#ffffff;" parent="1" vertex="1">
                    <mxGeometry x="340" y="370" width="120" height="60" as="geometry"/>
                </mxCell>
                <mxCell id="26" style="edgeStyle=orthogonalEdgeStyle;shape=flexArrow;rounded=0;orthogonalLoop=1;jettySize=auto;html=1;entryX=0.5;entryY=0;entryDx=0;entryDy=0;" parent="1" source="8" target="7" edge="1">
                    <mxGeometry relative="1" as="geometry"/>
                </mxCell>
                <mxCell id="28" value="Allocate&lt;br style=&quot;font-size: 18px;&quot;&gt;" style="edgeLabel;html=1;align=center;verticalAlign=middle;resizable=0;points=[];fontSize=18;" parent="26" vertex="1" connectable="0">
                    <mxGeometry x="-0.3091" y="-2" relative="1" as="geometry">
                        <mxPoint as="offset"/>
                    </mxGeometry>
                </mxCell>
                <mxCell id="8" value="VkDescriptorPool" style="rounded=1;whiteSpace=wrap;html=1;fillColor=#a20025;strokeColor=#6F0000;fontColor=#ffffff;" parent="1" vertex="1">
                    <mxGeometry x="340" y="120" width="120" height="60" as="geometry"/>
                </mxCell>
                <mxCell id="38" style="edgeStyle=orthogonalEdgeStyle;rounded=0;orthogonalLoop=1;jettySize=auto;html=1;" edge="1" parent="1" source="32">
                    <mxGeometry relative="1" as="geometry">
                        <mxPoint x="690" y="260" as="targetPoint"/>
                        <Array as="points">
                            <mxPoint x="700" y="350"/>
                            <mxPoint x="700" y="260"/>
                        </Array>
                    </mxGeometry>
                </mxCell>
                <mxCell id="32" value="0: Buffer Descriptor" style="rounded=1;whiteSpace=wrap;html=1;fillColor=#a20025;strokeColor=#6F0000;fontColor=#ffffff;" vertex="1" parent="1">
                    <mxGeometry x="560" y="340" width="120" height="20" as="geometry"/>
                </mxCell>
                <mxCell id="40" style="edgeStyle=orthogonalEdgeStyle;rounded=0;orthogonalLoop=1;jettySize=auto;html=1;" edge="1" parent="1" source="33">
                    <mxGeometry relative="1" as="geometry">
                        <mxPoint x="860" y="260" as="targetPoint"/>
                    </mxGeometry>
                </mxCell>
                <mxCell id="33" value="1: Buffer Descriptor" style="rounded=1;whiteSpace=wrap;html=1;fillColor=#a20025;strokeColor=#6F0000;fontColor=#ffffff;" vertex="1" parent="1">
                    <mxGeometry x="560" y="370" width="120" height="20" as="geometry"/>
                </mxCell>
                <mxCell id="41" style="edgeStyle=orthogonalEdgeStyle;rounded=0;orthogonalLoop=1;jettySize=auto;html=1;" edge="1" parent="1" source="34">
                    <mxGeometry relative="1" as="geometry">
                        <mxPoint x="850" y="440" as="targetPoint"/>
                    </mxGeometry>
                </mxCell>
                <mxCell id="34" value="2: Image&amp;nbsp;Descriptor" style="rounded=1;whiteSpace=wrap;html=1;fillColor=#a20025;strokeColor=#6F0000;fontColor=#ffffff;" vertex="1" parent="1">
                    <mxGeometry x="560" y="400" width="120" height="20" as="geometry"/>
                </mxCell>
                <mxCell id="43" style="edgeStyle=orthogonalEdgeStyle;rounded=0;orthogonalLoop=1;jettySize=auto;html=1;" edge="1" parent="1" source="35">
                    <mxGeometry relative="1" as="geometry">
                        <mxPoint x="730" y="530" as="targetPoint"/>
                    </mxGeometry>
                </mxCell>
                <mxCell id="35" value="3: Buffer Descriptor" style="rounded=1;whiteSpace=wrap;html=1;fillColor=#a20025;strokeColor=#6F0000;fontColor=#ffffff;" vertex="1" parent="1">
                    <mxGeometry x="560" y="430" width="120" height="20" as="geometry"/>
                </mxCell>
                <mxCell id="37" value="Holds" style="text;html=1;align=center;verticalAlign=middle;resizable=0;points=[];autosize=1;" vertex="1" parent="1">
                    <mxGeometry x="475" y="380" width="50" height="20" as="geometry"/>
                </mxCell>
                <mxCell id="39" value="BUFFER&lt;br&gt;" style="whiteSpace=wrap;html=1;" vertex="1" parent="1">
                    <mxGeometry x="690" y="230" width="350" height="20" as="geometry"/>
                </mxCell>
                <mxCell id="42" value="IMAGE&lt;br&gt;" style="whiteSpace=wrap;html=1;" vertex="1" parent="1">
                    <mxGeometry x="830" y="440" width="60" height="60" as="geometry"/>
                </mxCell>
                <mxCell id="44" value="BUFFER&lt;br&gt;" style="whiteSpace=wrap;html=1;" vertex="1" parent="1">
                    <mxGeometry x="730" y="540" width="160" height="30" as="geometry"/>
                </mxCell>
                <mxCell id="46" value="byte 0&lt;br&gt;" style="text;html=1;align=center;verticalAlign=middle;resizable=0;points=[];autosize=1;" vertex="1" parent="1">
                    <mxGeometry x="710" y="270" width="50" height="20" as="geometry"/>
                </mxCell>
                <mxCell id="47" value="Byte 500&lt;br&gt;" style="text;html=1;align=center;verticalAlign=middle;resizable=0;points=[];autosize=1;" vertex="1" parent="1">
                    <mxGeometry x="870" y="270" width="60" height="20" as="geometry"/>
                </mxCell>
                <mxCell id="53" style="edgeStyle=orthogonalEdgeStyle;rounded=0;orthogonalLoop=1;jettySize=auto;html=1;" edge="1" parent="1" source="48">
                    <mxGeometry relative="1" as="geometry">
                        <mxPoint x="360" y="250" as="targetPoint"/>
                    </mxGeometry>
                </mxCell>
                <mxCell id="48" value="VkDescriptorSet&lt;br&gt;Layout" style="whiteSpace=wrap;html=1;verticalAlign=top;" vertex="1" parent="1">
                    <mxGeometry x="110" y="190" width="120" height="150" as="geometry"/>
                </mxCell>
                <mxCell id="49" value="0: Buffer" style="rounded=1;whiteSpace=wrap;html=1;fillColor=#a20025;strokeColor=#6F0000;fontColor=#ffffff;" vertex="1" parent="1">
                    <mxGeometry x="109" y="230" width="120" height="20" as="geometry"/>
                </mxCell>
                <mxCell id="50" value="1: Buffer" style="rounded=1;whiteSpace=wrap;html=1;fillColor=#a20025;strokeColor=#6F0000;fontColor=#ffffff;" vertex="1" parent="1">
                    <mxGeometry x="110" y="260" width="120" height="20" as="geometry"/>
                </mxCell>
                <mxCell id="51" value="2: Image" style="rounded=1;whiteSpace=wrap;html=1;fillColor=#a20025;strokeColor=#6F0000;fontColor=#ffffff;" vertex="1" parent="1">
                    <mxGeometry x="110" y="290" width="120" height="20" as="geometry"/>
                </mxCell>
                <mxCell id="52" value="3: Buffer" style="rounded=1;whiteSpace=wrap;html=1;fillColor=#a20025;strokeColor=#6F0000;fontColor=#ffffff;" vertex="1" parent="1">
                    <mxGeometry x="110" y="320" width="120" height="20" as="geometry"/>
                </mxCell>
                <mxCell id="54" value="Pointers&lt;br&gt;" style="text;html=1;align=center;verticalAlign=middle;resizable=0;points=[];autosize=1;" vertex="1" parent="1">
                    <mxGeometry x="690" y="380" width="60" height="20" as="geometry"/>
                </mxCell>
            </root>
        </mxGraphModel>
    </diagram>
</mxfile>